<?xml version="1.0" encoding="utf-8"?>
<!-- Generator: Adobe Illustrator 16.0.0, SVG Export Plug-In . SVG Version: 6.00 Build 0)  -->
<!DOCTYPE svg PUBLIC "-//W3C//DTD SVG 1.1//EN" "http://www.w3.org/Graphics/SVG/1.1/DTD/svg11.dtd">
<svg version="1.1" id="Layer_1" xmlns="http://www.w3.org/2000/svg" xmlns:xlink="http://www.w3.org/1999/xlink" x="0px" y="0px"
	 width="1000px" height="1000px" viewBox="0 0 1000 1000" enable-background="new 0 0 1000 1000" xml:space="preserve">
<g opacity="0.33">
	<g>
		<defs>
			<rect id="SVGID_1_" x="289.13" y="325.134" width="524.065" height="435.414"/>
		</defs>
		<clipPath id="SVGID_2_">
			<use xlink:href="#SVGID_1_"  overflow="visible"/>
		</clipPath>
		<g clip-path="url(#SVGID_2_)">
			<defs>
				<rect id="SVGID_3_" x="289.13" y="325.137" width="524.065" height="435.411"/>
			</defs>
			<clipPath id="SVGID_4_">
				<use xlink:href="#SVGID_3_"  overflow="visible"/>
			</clipPath>
			
				<linearGradient id="SVGID_5_" gradientUnits="userSpaceOnUse" x1="-299.4473" y1="1100.332" x2="-297.4663" y2="1100.332" gradientTransform="matrix(264.5787 0 0 -264.5787 79516.5 291667.125)">
				<stop  offset="0" style="stop-color:#96C8EC"/>
				<stop  offset="1" style="stop-color:#BADCF4"/>
			</linearGradient>
			<rect x="289.13" y="325.137" clip-path="url(#SVGID_4_)" fill="url(#SVGID_5_)" width="524.065" height="435.411"/>
		</g>
	</g>
</g>
<g>
	<defs>
		<path id="SVGID_6_" d="M227.97,187.106c-7.743,0-14.028,6.283-14.028,14.028v426.434c0,5.89,4.77,10.658,10.66,10.658h527.434
			c5.89,0,10.66-4.769,10.66-10.658V197.767c0-5.891-4.771-10.66-10.66-10.66H227.97z"/>
	</defs>
	<clipPath id="SVGID_7_">
		<use xlink:href="#SVGID_6_"  overflow="visible"/>
	</clipPath>
	
		<linearGradient id="SVGID_8_" gradientUnits="userSpaceOnUse" x1="-299.5615" y1="1100.5957" x2="-297.5806" y2="1100.5957" gradientTransform="matrix(277.0428 0 0 -277.0428 83205.25 305324.5)">
		<stop  offset="0" style="stop-color:#96C8EC"/>
		<stop  offset="1" style="stop-color:#BADCF4"/>
	</linearGradient>
	<rect x="213.942" y="187.106" clip-path="url(#SVGID_7_)" fill="url(#SVGID_8_)" width="548.754" height="451.12"/>
</g>
<g>
	<defs>
		<rect id="SVGID_9_" x="283.521" y="509.176" width="177.307" height="12.345"/>
	</defs>
	<clipPath id="SVGID_10_">
		<use xlink:href="#SVGID_9_"  overflow="visible"/>
	</clipPath>
	
		<linearGradient id="SVGID_11_" gradientUnits="userSpaceOnUse" x1="-300.3521" y1="1099.1777" x2="-298.3711" y2="1099.1777" gradientTransform="matrix(89.5148 0 0 -89.5148 27169.5 98908.0625)">
		<stop  offset="0" style="stop-color:#5A5AA7"/>
		<stop  offset="1" style="stop-color:#7287C3"/>
	</linearGradient>
	<rect x="283.521" y="509.176" clip-path="url(#SVGID_10_)" fill="url(#SVGID_11_)" width="177.307" height="12.345"/>
</g>
<g>
	<defs>
		<rect id="SVGID_12_" x="351.973" y="530.496" width="108.854" height="12.345"/>
	</defs>
	<clipPath id="SVGID_13_">
		<use xlink:href="#SVGID_12_"  overflow="visible"/>
	</clipPath>
	
		<linearGradient id="SVGID_14_" gradientUnits="userSpaceOnUse" x1="-300.5864" y1="1097.8389" x2="-298.606" y2="1097.8389" gradientTransform="matrix(54.9553 0 0 -54.9553 16870.7813 60868.7813)">
		<stop  offset="0" style="stop-color:#5A5AA7"/>
		<stop  offset="1" style="stop-color:#7287C3"/>
	</linearGradient>
	<rect x="351.973" y="530.496" clip-path="url(#SVGID_13_)" fill="url(#SVGID_14_)" width="108.854" height="12.345"/>
</g>
<g>
	<defs>
		<rect id="SVGID_15_" x="283.521" y="399.201" width="177.307" height="12.344"/>
	</defs>
	<clipPath id="SVGID_16_">
		<use xlink:href="#SVGID_15_"  overflow="visible"/>
	</clipPath>
	
		<linearGradient id="SVGID_17_" gradientUnits="userSpaceOnUse" x1="-300.3521" y1="1099.7861" x2="-298.3711" y2="1099.7861" gradientTransform="matrix(89.5148 0 0 -89.5148 27169.5 98852.5625)">
		<stop  offset="0" style="stop-color:#5A5AA7"/>
		<stop  offset="1" style="stop-color:#7287C3"/>
	</linearGradient>
	<rect x="283.521" y="399.202" clip-path="url(#SVGID_16_)" fill="url(#SVGID_17_)" width="177.307" height="12.344"/>
</g>
<g>
	<defs>
		<rect id="SVGID_18_" x="351.973" y="420.522" width="108.854" height="12.344"/>
	</defs>
	<clipPath id="SVGID_19_">
		<use xlink:href="#SVGID_18_"  overflow="visible"/>
	</clipPath>
	
		<linearGradient id="SVGID_20_" gradientUnits="userSpaceOnUse" x1="-300.5864" y1="1098.8291" x2="-298.606" y2="1098.8291" gradientTransform="matrix(54.9553 0 0 -54.9553 16870.7813 60813.25)">
		<stop  offset="0" style="stop-color:#5A5AA7"/>
		<stop  offset="1" style="stop-color:#7287C3"/>
	</linearGradient>
	<rect x="351.973" y="420.522" clip-path="url(#SVGID_19_)" fill="url(#SVGID_20_)" width="108.854" height="12.344"/>
</g>
<g>
	<defs>
		<path id="SVGID_21_" d="M228.045,186.543c-7.741,0-14.025,6.285-14.025,14.03v40.959h548.753v-44.327
			c0-5.892-4.771-10.662-10.662-10.662H228.045z"/>
	</defs>
	<clipPath id="SVGID_22_">
		<use xlink:href="#SVGID_21_"  overflow="visible"/>
	</clipPath>
	
		<linearGradient id="SVGID_23_" gradientUnits="userSpaceOnUse" x1="-299.561" y1="1100.9492" x2="-297.5806" y2="1100.9492" gradientTransform="matrix(277.0428 0 0 -277.0428 83205.25 305224.25)">
		<stop  offset="0" style="stop-color:#5A5AA7"/>
		<stop  offset="1" style="stop-color:#7287C3"/>
	</linearGradient>
	<rect x="214.02" y="186.543" clip-path="url(#SVGID_22_)" fill="url(#SVGID_23_)" width="548.753" height="54.99"/>
</g>
<g>
	<defs>
		<path id="SVGID_24_" d="M642.622,289.507c-0.691-0.044-1.109-0.03-1.109-0.03v0.133c-4.838,0.598-15.725,3.807-13.397,20.689
			c0,0-4.087,2.603,2.604,10.038c0,0,6.693,11.899-1.485,17.847c0,0-9.667,3.718-20.821,5.948c0,0-8.181,0.744-8.181,12.641
			c0,0-0.742,31.978-2.23,38.668c0,0-12.64,40.157-11.896,51.31c0,0-7.437,14.129-2.231,23.795c0,0,2.972,3.718,4.461,2.975
			c0,0,1.485-0.744,0.743-5.206c0,0-0.743-11.897,4.464-15.617l-0.747,10.412c0,0,7.438-2.229,4.463-15.615c0,0,0-2.976,1.489-8.924
			c0,0,11.896-16.358,11.896-33.463l4.462-9.667l1.485,37.924c0,0-14.127,22.31,2.234,89.977c0,0-2.977,37.922,5.946,55.768
			c0,0,0.743,12.644-2.229,20.078c0,0-2.975,6.692,5.205,8.179h10.728c1.514,0,2.717-1.284,2.598-2.795
			c-0.281-3.536-1.446-10.122-5.891-18.025c0,0-0.742-11.153-0.742-20.822c0,0,1.485-19.331,0-26.767c0,0-1.487-7.436,0-13.384
			l8.179-57.259l0.005-0.78l0.002,0.78l8.181,57.259c1.489,5.948,0,13.384,0,13.384c-1.485,7.436,0,26.767,0,26.767
			c0,9.669-0.744,20.822-0.744,20.822c-4.444,7.903-5.606,14.489-5.889,18.025c-0.12,1.511,1.083,2.795,2.599,2.795h10.73
			c8.177-1.486,5.204-8.179,5.204-8.179c-2.975-7.435-2.232-20.078-2.232-20.078c8.925-17.846,5.95-55.768,5.95-55.768
			c16.358-67.667,2.229-89.977,2.229-89.977l1.487-37.924l4.464,9.667c0,17.104,11.896,33.463,11.896,33.463
			c1.487,5.948,1.487,8.924,1.487,8.924c-2.976,13.386,4.463,15.615,4.463,15.615l-0.745-10.412
			c5.205,3.72,4.463,15.617,4.463,15.617c-0.745,4.462,0.742,5.206,0.742,5.206c1.488,0.743,4.463-2.975,4.463-2.975
			c5.206-9.666-2.232-23.795-2.232-23.795c0.745-11.153-11.896-51.31-11.896-51.31c-1.487-6.69-2.232-38.668-2.232-38.668
			c0-11.896-8.178-12.641-8.178-12.641c-11.155-2.23-20.822-5.948-20.822-5.948c-8.182-5.948-1.486-17.847-1.486-17.847
			c6.691-7.436,2.604-10.038,2.604-10.038c2.327-16.882-8.558-20.091-13.397-20.689l0.002-0.133c0,0-0.068-0.001-0.194-0.001
			C643.354,289.475,643.037,289.481,642.622,289.507"/>
	</defs>
	<clipPath id="SVGID_25_">
		<use xlink:href="#SVGID_24_"  overflow="visible"/>
	</clipPath>
	
		<linearGradient id="SVGID_26_" gradientUnits="userSpaceOnUse" x1="-298.563" y1="1098.875" x2="-296.5824" y2="1098.875" gradientTransform="matrix(61.1874 0 0 -61.1874 18850.3438 67685.7813)">
		<stop  offset="0" style="stop-color:#5A5AA7"/>
		<stop  offset="1" style="stop-color:#7287C3"/>
	</linearGradient>
	<rect x="578.668" y="289.463" clip-path="url(#SVGID_25_)" fill="url(#SVGID_26_)" width="127.91" height="317.903"/>
</g>
<g>
	<defs>
		<path id="SVGID_27_" d="M472.608,416.409c0,21.591,17.504,39.094,39.097,39.094c21.592,0,39.096-17.503,39.096-39.094
			c0-21.591-17.504-39.095-39.096-39.095C490.112,377.314,472.608,394.818,472.608,416.409"/>
	</defs>
	<clipPath id="SVGID_28_">
		<use xlink:href="#SVGID_27_"  overflow="visible"/>
	</clipPath>
	
		<linearGradient id="SVGID_29_" gradientUnits="userSpaceOnUse" x1="-299.6953" y1="1098.1074" x2="-297.7144" y2="1098.1074" gradientTransform="matrix(39.4745 0 0 -39.4745 12302.9375 43763.6563)">
		<stop  offset="0" style="stop-color:#5A5AA7"/>
		<stop  offset="1" style="stop-color:#7287C3"/>
	</linearGradient>
	<rect x="472.608" y="377.314" clip-path="url(#SVGID_28_)" fill="url(#SVGID_29_)" width="78.192" height="78.189"/>
</g>
<path fill="#FFFFFF" d="M536.007,398.192l-13.182-7.029c0.556-1.89,1.424-2.377,1.424-2.377l-3.292-2.822
	c-3.292,5.646-2.442,11.401-1.412,15.05c1.232,4.364,1.592,7.988,1.345,11.003l-4.684-6.338c1.443-0.342,2.399-0.433,2.399-0.433
	l-0.471-3.763c-10.816,0.472-15.99,7.526-15.99,7.526c-7.056,8.936-2.822,20.223-2.822,20.223c1.191,2.721,1.518,5.315,1.452,7.524
	l-4.746-6.529c0.592-0.033,1.215-0.056,1.883-0.056l-0.939-3.761c0,0-7.054-0.941-12.699,3.761l2.822,3.292
	c0,0,0.182-0.319,0.703-0.757l12.318,11.428l2.028,2.027c5.644-4.702,1.881-15.519,1.881-15.519
	c6.115-0.473,10.817-2.823,10.817-2.823c14.109-8.936,9.406-22.103,9.406-22.103c-0.028-0.1-0.054-0.192-0.08-0.287
	c9.369,1.784,15.129-4.417,15.129-4.417L536.007,398.192z M500.162,440.968l-10.282-9.49c0.871-0.368,1.992-0.71,3.424-0.953
	l7.185,8.982C500.392,440.042,500.279,440.53,500.162,440.968 M503.084,426.879c-0.24-1.014-0.414-1.978-0.529-2.901l7.646,1.64
	C506.415,426.926,503.084,426.879,503.084,426.879 M513.505,424.121l-11.123-2.512c-0.021-1.26,0.076-2.425,0.277-3.5l12.023,5.263
	C514.296,423.641,513.903,423.891,513.505,424.121 M516.64,421.741l-13.441-5.7c0.424-1.24,0.99-2.342,1.659-3.316l12.312,8.466
	C516.997,421.381,516.819,421.563,516.64,421.741 M518.601,419.294l-12.073-8.572c0.7-0.697,1.448-1.308,2.223-1.843l10.447,9.367
	C519.011,418.609,518.812,418.961,518.601,419.294 M519.962,416.479l-8.939-8.94c0.728-0.365,1.447-0.676,2.139-0.935l7.201,8.57
	C520.243,415.627,520.107,416.061,519.962,416.479 M523.121,401.221c-0.129-0.621-0.237-1.211-0.33-1.772l9.138,1.577
	C528.842,401.869,525.035,401.497,523.121,401.221 M534.486,399.87l-11.957-2.313c-0.166-1.539-0.189-2.819-0.121-3.879l12.631,5.74
	C534.867,399.581,534.681,399.731,534.486,399.87"/>
<g>
	<defs>
		<path id="SVGID_30_" d="M473.17,525.471c0,20.749,16.823,37.571,37.569,37.571c20.752,0,37.574-16.822,37.574-37.571
			c0-20.751-16.822-37.571-37.574-37.571C489.993,487.899,473.17,504.72,473.17,525.471"/>
	</defs>
	<clipPath id="SVGID_31_">
		<use xlink:href="#SVGID_30_"  overflow="visible"/>
	</clipPath>
	
		<linearGradient id="SVGID_32_" gradientUnits="userSpaceOnUse" x1="-299.7163" y1="1096.5674" x2="-297.7354" y2="1096.5674" gradientTransform="matrix(37.9357 0 0 -37.9357 11843.125 42124.5625)">
		<stop  offset="0" style="stop-color:#5A5AA7"/>
		<stop  offset="1" style="stop-color:#7287C3"/>
	</linearGradient>
	<rect x="473.17" y="487.899" clip-path="url(#SVGID_31_)" fill="url(#SVGID_32_)" width="75.144" height="75.143"/>
</g>
<path fill="#FFFFFF" d="M500.063,551.572L500.063,551.572c-3.274,0-5.93-2.657-5.93-5.935v-38.359h11.862v38.359
	C505.995,548.915,503.339,551.572,500.063,551.572"/>
<g>
	<defs>
		<path id="SVGID_33_" d="M496.108,519.538v25.311c0,2.185,1.771,3.953,3.954,3.953c2.187,0,3.956-1.769,3.956-3.953v-25.311
			H496.108z"/>
	</defs>
	<clipPath id="SVGID_34_">
		<use xlink:href="#SVGID_33_"  overflow="visible"/>
	</clipPath>
	
		<linearGradient id="SVGID_35_" gradientUnits="userSpaceOnUse" x1="-302.958" y1="1057.8125" x2="-300.9771" y2="1057.8125" gradientTransform="matrix(3.9932 0 0 -3.9932 1705.8926 4758.2656)">
		<stop  offset="0" style="stop-color:#F2A099"/>
		<stop  offset="1" style="stop-color:#E86E76"/>
	</linearGradient>
	<rect x="496.108" y="519.538" clip-path="url(#SVGID_34_)" fill="url(#SVGID_35_)" width="7.91" height="29.264"/>
</g>
<rect x="491.362" y="503.441" fill="#FFFFFF" width="17.401" height="6.091"/>
<path fill="#FFFFFF" d="M521.42,551.572L521.42,551.572c-3.277,0-5.933-2.657-5.933-5.935v-38.359h11.865v38.359
	C527.353,548.915,524.696,551.572,521.42,551.572"/>
<g>
	<defs>
		<path id="SVGID_36_" d="M517.464,528.238v16.61c0,2.185,1.772,3.953,3.956,3.953s3.955-1.769,3.955-3.953v-16.61H517.464z"/>
	</defs>
	<clipPath id="SVGID_37_">
		<use xlink:href="#SVGID_36_"  overflow="visible"/>
	</clipPath>
	
		<linearGradient id="SVGID_38_" gradientUnits="userSpaceOnUse" x1="-300.3101" y1="1057.2734" x2="-298.3291" y2="1057.2734" gradientTransform="matrix(3.9932 0 0 -3.9932 1716.6738 4760.4609)">
		<stop  offset="0" style="stop-color:#96C8EC"/>
		<stop  offset="1" style="stop-color:#BADCF4"/>
	</linearGradient>
	<rect x="517.464" y="528.238" clip-path="url(#SVGID_37_)" fill="url(#SVGID_38_)" width="7.911" height="20.563"/>
</g>
<rect x="512.719" y="503.441" fill="#FFFFFF" width="17.401" height="6.091"/>
<g>
	<defs>
		<path id="SVGID_39_" d="M688.968,148.951c-12.583,0-22.779,10.199-22.779,22.779v98.083c0,12.582,10.196,22.78,22.779,22.78
			h98.084c12.578,0,22.778-10.198,22.778-22.78v-98.083c0-12.58-10.2-22.779-22.778-22.779H688.968z"/>
	</defs>
	<clipPath id="SVGID_40_">
		<use xlink:href="#SVGID_39_"  overflow="visible"/>
	</clipPath>
	
		<linearGradient id="SVGID_41_" gradientUnits="userSpaceOnUse" x1="-298.0576" y1="1100.7607" x2="-296.0767" y2="1100.7607" gradientTransform="matrix(72.5184 0 0 -72.5184 22280.8125 80046.1875)">
		<stop  offset="0" style="stop-color:#96C8EC"/>
		<stop  offset="1" style="stop-color:#BADCF4"/>
	</linearGradient>
	<rect x="666.188" y="148.951" clip-path="url(#SVGID_40_)" fill="url(#SVGID_41_)" width="143.642" height="143.642"/>
</g>
<g>
	<defs>
		<polygon id="SVGID_42_" points="701.722,200.118 726.266,200.118 726.266,255.515 751.547,255.515 751.547,200.118 
			775.341,200.118 738.905,164.796 		"/>
	</defs>
	<clipPath id="SVGID_43_">
		<use xlink:href="#SVGID_42_"  overflow="visible"/>
	</clipPath>
	
		<linearGradient id="SVGID_44_" gradientUnits="userSpaceOnUse" x1="-296.6855" y1="1100.6777" x2="-294.7051" y2="1100.6777" gradientTransform="matrix(37.1662 0 0 -37.1662 11728.4375 41118.1563)">
		<stop  offset="0" style="stop-color:#5A5AA7"/>
		<stop  offset="1" style="stop-color:#7287C3"/>
	</linearGradient>
	<rect x="701.722" y="164.796" clip-path="url(#SVGID_43_)" fill="url(#SVGID_44_)" width="73.619" height="90.719"/>
</g>
<g>
	<defs>
		<polygon id="SVGID_45_" points="784.079,243.43 784.079,267.972 692.615,267.972 692.615,243.43 682.205,243.43 682.205,279.126 
			794.119,279.126 794.119,243.43 		"/>
	</defs>
	<clipPath id="SVGID_46_">
		<use xlink:href="#SVGID_45_"  overflow="visible"/>
	</clipPath>
	
		<linearGradient id="SVGID_47_" gradientUnits="userSpaceOnUse" x1="-297.6489" y1="1100.3398" x2="-295.668" y2="1100.3398" gradientTransform="matrix(56.5002 0 0 -56.5002 17499.4375 62430.6563)">
		<stop  offset="0" style="stop-color:#5A5AA7"/>
		<stop  offset="1" style="stop-color:#7287C3"/>
	</linearGradient>
	<rect x="682.205" y="243.43" clip-path="url(#SVGID_46_)" fill="url(#SVGID_47_)" width="111.914" height="35.696"/>
</g>
<g>
	<defs>
		<rect id="SVGID_48_" x="464.192" y="585.485" width="103.244" height="130.995"/>
	</defs>
	<clipPath id="SVGID_49_">
		<use xlink:href="#SVGID_48_"  overflow="visible"/>
	</clipPath>
	
		<linearGradient id="SVGID_50_" gradientUnits="userSpaceOnUse" x1="-299.6074" y1="1096.5801" x2="-297.627" y2="1096.5801" gradientTransform="matrix(52.1226 0 0 -52.1226 16080.4688 57807.625)">
		<stop  offset="0" style="stop-color:#5A5AA7"/>
		<stop  offset="1" style="stop-color:#7287C3"/>
	</linearGradient>
	<rect x="464.192" y="585.485" clip-path="url(#SVGID_49_)" fill="url(#SVGID_50_)" width="103.244" height="130.995"/>
</g>
<g>
	<defs>
		<rect id="SVGID_51_" x="473.072" y="592.7" width="86.036" height="114.342"/>
	</defs>
	<clipPath id="SVGID_52_">
		<use xlink:href="#SVGID_51_"  overflow="visible"/>
	</clipPath>
	
		<linearGradient id="SVGID_53_" gradientUnits="userSpaceOnUse" x1="-299.626" y1="1095.7109" x2="-297.645" y2="1095.7109" gradientTransform="matrix(43.4355 0 0 -43.4355 13487.4688 48242.5938)">
		<stop  offset="0" style="stop-color:#96C8EC"/>
		<stop  offset="1" style="stop-color:#BADCF4"/>
	</linearGradient>
	<rect x="473.072" y="592.7" clip-path="url(#SVGID_52_)" fill="url(#SVGID_53_)" width="86.036" height="114.342"/>
</g>
<rect x="482.787" y="613.794" fill="#FFFFFF" width="26.089" height="26.642"/>
<rect x="514.148" y="612.686" fill="#FFFFFF" width="33.859" height="2.773"/>
<rect x="514.427" y="620.733" fill="#FFFFFF" width="33.858" height="2.773"/>
<rect x="496.388" y="589.927" fill="#4C459C" width="39.965" height="8.878"/>
<rect x="514.427" y="628.503" fill="#FFFFFF" width="33.858" height="2.775"/>
<rect x="514.427" y="636.272" fill="#FFFFFF" width="33.858" height="2.776"/>
<rect x="482.511" y="644.599" fill="#FFFFFF" width="65.774" height="2.773"/>
<rect x="482.511" y="652.925" fill="#FFFFFF" width="65.774" height="2.777"/>
<rect x="482.511" y="660.143" fill="#FFFFFF" width="65.774" height="2.773"/>
<rect x="482.511" y="669.021" fill="#FFFFFF" width="65.774" height="2.773"/>
<rect x="482.511" y="676.236" fill="#FFFFFF" width="65.774" height="2.776"/>
<rect x="482.511" y="684.566" fill="#FFFFFF" width="44.959" height="2.773"/>
<g>
	<defs>
		<polygon id="SVGID_54_" points="490.993,613.54 490.993,622.384 482.149,622.384 482.149,631.629 490.993,631.629 
			490.993,640.473 500.237,640.473 500.237,631.629 509.08,631.629 509.08,622.384 500.237,622.384 500.237,613.54 		"/>
	</defs>
	<clipPath id="SVGID_55_">
		<use xlink:href="#SVGID_54_"  overflow="visible"/>
	</clipPath>
	
		<linearGradient id="SVGID_56_" gradientUnits="userSpaceOnUse" x1="-300.6704" y1="1084.9365" x2="-298.6895" y2="1084.9365" gradientTransform="matrix(13.5972 0 0 -13.5972 4570.4219 15379.0859)">
		<stop  offset="0" style="stop-color:#F2A099"/>
		<stop  offset="1" style="stop-color:#E86E76"/>
	</linearGradient>
	<rect x="482.149" y="613.54" clip-path="url(#SVGID_55_)" fill="url(#SVGID_56_)" width="26.931" height="26.933"/>
</g>
<polygon fill="#FBC8B8" points="221.373,825.803 217.468,852.297 215.739,863.971 181.177,864.754 183.88,841.313 185.405,828.025 
	"/>
<g>
	<defs>
		<path id="SVGID_57_" d="M180.373,858.313l-3.114,27.024l83.087-0.146l-3.5-7.166c-1.603-3.277-4.376-5.838-7.772-7.177
			l-33.92-13.331C197.822,868.383,180.373,858.313,180.373,858.313"/>
	</defs>
	<clipPath id="SVGID_58_">
		<use xlink:href="#SVGID_57_"  overflow="visible"/>
	</clipPath>
	
		<linearGradient id="SVGID_59_" gradientUnits="userSpaceOnUse" x1="-303.4487" y1="1093.0508" x2="-301.4675" y2="1093.0508" gradientTransform="matrix(41.8918 -1.5651 -1.5651 -41.8918 14599.5 46187.9375)">
		<stop  offset="0" style="stop-color:#5A5AA7"/>
		<stop  offset="1" style="stop-color:#7287C3"/>
	</linearGradient>
	<polygon clip-path="url(#SVGID_58_)" fill="url(#SVGID_59_)" points="176.222,857.557 260.23,854.417 261.384,885.298 
		177.375,888.436 	"/>
</g>
<polygon fill="#FBC8B8" points="330.226,825.803 329.464,851.355 329.081,863.971 294.517,864.754 294.349,841.031 294.26,828.025 
	"/>
<g>
	<defs>
		<path id="SVGID_60_" d="M294.847,858.287l-3.131,27.025l83.088-0.088l-3.498-7.172c-1.598-3.28-4.371-5.842-7.766-7.177
			l-33.913-13.358C312.289,868.369,294.847,858.287,294.847,858.287"/>
	</defs>
	<clipPath id="SVGID_61_">
		<use xlink:href="#SVGID_60_"  overflow="visible"/>
	</clipPath>
	
		<linearGradient id="SVGID_62_" gradientUnits="userSpaceOnUse" x1="-302.0923" y1="1092.998" x2="-300.1116" y2="1092.998" gradientTransform="matrix(41.8928 -1.5383 -1.5383 -41.8928 14628.0938 46196.9688)">
		<stop  offset="0" style="stop-color:#5A5AA7"/>
		<stop  offset="1" style="stop-color:#7287C3"/>
	</linearGradient>
	<polygon clip-path="url(#SVGID_61_)" fill="url(#SVGID_62_)" points="290.696,857.555 374.692,854.471 375.823,885.273 
		291.826,888.358 	"/>
</g>
<g>
	<defs>
		<path id="SVGID_63_" d="M195.989,519.276c0,0,43.765,62.844,142.519,20.198l-7.856-23.565L195.989,519.276z"/>
	</defs>
	<clipPath id="SVGID_64_">
		<use xlink:href="#SVGID_63_"  overflow="visible"/>
	</clipPath>
	
		<linearGradient id="SVGID_65_" gradientUnits="userSpaceOnUse" x1="-301.2856" y1="1098.4023" x2="-299.3047" y2="1098.4023" gradientTransform="matrix(71.9518 0 0 -71.9518 21873.9375 79581.125)">
		<stop  offset="0" style="stop-color:#F2A099"/>
		<stop  offset="1" style="stop-color:#E86E76"/>
	</linearGradient>
	<rect x="195.989" y="515.909" clip-path="url(#SVGID_64_)" fill="url(#SVGID_65_)" width="142.519" height="66.211"/>
</g>
<path fill="#FBC8B8" d="M520.304,304.936c0,0-1.121,15.711-39.276,44.888l-74.302,81.236c-5.31,5.802-14.43,5.812-19.75,0.022
	l-15.856-17.261l-12.412-13.499l28.054-33.667l5.219,8.271l8.248,13.051l68.453-49.376v-19.079l48.254-20.2
	C516.936,299.325,519.183,300.447,520.304,304.936"/>
<g opacity="0.15">
	<g>
		<defs>
			<rect id="SVGID_66_" x="183.881" y="825.804" width="37.491" height="26.495"/>
		</defs>
		<clipPath id="SVGID_67_">
			<use xlink:href="#SVGID_66_"  overflow="visible"/>
		</clipPath>
		<polygon clip-path="url(#SVGID_67_)" fill="#010101" points="221.373,825.803 217.468,852.297 183.88,841.313 185.405,828.025 		
			"/>
	</g>
</g>
<g opacity="0.15">
	<g>
		<defs>
			<rect id="SVGID_68_" x="294.258" y="825.804" width="35.967" height="25.552"/>
		</defs>
		<clipPath id="SVGID_69_">
			<use xlink:href="#SVGID_68_"  overflow="visible"/>
		</clipPath>
		<polygon clip-path="url(#SVGID_69_)" fill="#010101" points="330.226,825.803 329.464,851.355 294.349,841.031 294.26,828.025 		
			"/>
	</g>
</g>
<g>
	<defs>
		<path id="SVGID_70_" d="M258.27,511.981l19.93,121.588l2.514,15.319l11.223,191.895h46.009c0,0-1.123-193.017-1.123-195.262
			c0-2.041-9.335-116.157-10.973-136.167c-0.157-1.93-0.248-2.983-0.248-2.983L258.27,511.981z"/>
	</defs>
	<clipPath id="SVGID_71_">
		<use xlink:href="#SVGID_70_"  overflow="visible"/>
	</clipPath>
	
		<linearGradient id="SVGID_72_" gradientUnits="userSpaceOnUse" x1="-297.7568" y1="1100.1084" x2="-295.776" y2="1100.1084" gradientTransform="matrix(5.0017 138.7981 138.7981 -5.0017 -150910.25 47373.75)">
		<stop  offset="0" style="stop-color:#5A5AA7"/>
		<stop  offset="1" style="stop-color:#7287C3"/>
	</linearGradient>
	<polygon clip-path="url(#SVGID_71_)" fill="url(#SVGID_72_)" points="337.842,503.504 349.981,840.351 258.374,843.652 
		246.234,506.805 	"/>
</g>
<g opacity="0.15">
	<g>
		<defs>
			<rect id="SVGID_73_" x="258.27" y="506.369" width="67.58" height="127.203"/>
		</defs>
		<clipPath id="SVGID_74_">
			<use xlink:href="#SVGID_73_"  overflow="visible"/>
		</clipPath>
		<path clip-path="url(#SVGID_74_)" fill="#010101" d="M325.85,509.354L278.2,633.569l-19.93-121.587l67.333-5.612
			C325.602,506.37,325.691,507.425,325.85,509.354"/>
	</g>
</g>
<path fill="#FBC8B8" d="M307.501,283.379l-0.056,0.493l-1.169,9.212l-3.242,25.878l-42.521-2.299l17.215-41.321l2.671-18.841
	l-1.616-27.909l5.834-7.203h44.776C329.395,221.39,348.605,293.715,307.501,283.379"/>
<g>
	<defs>
		<polygon id="SVGID_75_" points="207.773,506.371 196.55,646.645 175.227,840.783 223.481,840.783 259.394,651.132 
			290.814,506.371 		"/>
	</defs>
	<clipPath id="SVGID_76_">
		<use xlink:href="#SVGID_75_"  overflow="visible"/>
	</clipPath>
	
		<linearGradient id="SVGID_77_" gradientUnits="userSpaceOnUse" x1="-297.1719" y1="1100.043" x2="-295.1909" y2="1100.043" gradientTransform="matrix(-14.9887 114.9135 114.9135 14.9887 -130618.9375 18241.3125)">
		<stop  offset="0" style="stop-color:#5A5AA7"/>
		<stop  offset="1" style="stop-color:#7287C3"/>
	</linearGradient>
	<polygon clip-path="url(#SVGID_76_)" fill="url(#SVGID_77_)" points="333.703,511.966 288.88,855.608 132.337,835.189 
		177.161,491.548 	"/>
</g>
<g opacity="0.15">
	<g>
		<defs>
			<rect id="SVGID_78_" x="358.706" y="366.658" width="33.276" height="47.166"/>
		</defs>
		<clipPath id="SVGID_79_">
			<use xlink:href="#SVGID_78_"  overflow="visible"/>
		</clipPath>
		<polygon clip-path="url(#SVGID_79_)" fill="#010101" points="391.98,374.928 371.119,413.822 358.708,400.323 386.761,366.657 		
			"/>
	</g>
</g>
<g>
	<defs>
		<path id="SVGID_80_" d="M228.261,297.689c-7.471,0.319-14.202,4.599-17.658,11.231l-35.935,68.957l48.254,4.491l-26.933,138.027
			c0,0,30.989,17.006,66.769,1.592c29.74-12.814,74.627,17.486,74.627,17.486l5.611-151.497l17.956,22.444l32.541-38.155
			l-37.909-55.917c-4.469-6.592-11.366-11.146-19.181-12.666l-30.441-5.482c0,0-7.855,24.688-37.029-2.244L228.261,297.689z"/>
	</defs>
	<clipPath id="SVGID_81_">
		<use xlink:href="#SVGID_80_"  overflow="visible"/>
	</clipPath>
	
		<linearGradient id="SVGID_82_" gradientUnits="userSpaceOnUse" x1="-300.5835" y1="1099.9609" x2="-298.603" y2="1099.9609" gradientTransform="matrix(110.4772 0 0 -110.4772 33382.3125 121938.3125)">
		<stop  offset="0" style="stop-color:#F2A099"/>
		<stop  offset="1" style="stop-color:#E86E76"/>
	</linearGradient>
	<rect x="174.668" y="295.958" clip-path="url(#SVGID_81_)" fill="url(#SVGID_82_)" width="218.826" height="243.516"/>
</g>
<path fill="#4D3745" d="M291.509,237.305c0,0-14.374-11.066-10.332,6.887c0.341,1.507,2.295,5.741,2.295,5.741
	s-1.147,6.887-3.442,11.478c0,0-18.368-43.622,8.033-43.622c0,0-1.146-21.81,42.476,1.149c3.775,1.986,14.027,0.499,17.219,3.443
	C358.399,232.2,351.203,256.82,291.509,237.305"/>
<path fill="#FBC8B8" d="M341.875,382.367c-4.491,10.1-38.156,14.589-38.156,14.589l-115.89,38.938
	c-8.708,2.93-17.035-5.294-14.228-14.037l10.829-33.654l2.885-8.943l0.257-0.82l35.35,3.927l-0.112,0.459l-2.434,10.258l-0.08,0.337
	l-0.181,0.729l86.972-21.884l12.344-10.1c3.367,2.246,0,6.734,0,6.734l-2.244,3.365c7.853,0,20.197-6.732,20.197-6.732
	c2.246,0,3.368,3.367,3.368,3.367c2.244,1.122,1.123,4.488,1.123,4.488c1.121,2.245,0,4.488,0,4.488
	C342.995,379.001,341.875,382.367,341.875,382.367"/>
<path fill="#4C459C" d="M495.053,260.61h40.467c2.904,0,4.685,3.193,3.152,5.665l-36.886,59.423h-36.784
	c-3.114,0-5.068-3.361-3.529-6.069L495.053,260.61z"/>
<g>
	<defs>
		<polygon id="SVGID_83_" points="495.053,260.61 461.388,320.086 498.421,320.086 536.573,260.61 		"/>
	</defs>
	<clipPath id="SVGID_84_">
		<use xlink:href="#SVGID_83_"  overflow="visible"/>
	</clipPath>
	
		<linearGradient id="SVGID_85_" gradientUnits="userSpaceOnUse" x1="-299.8696" y1="1099.6367" x2="-297.8887" y2="1099.6367" gradientTransform="matrix(37.9588 0 0 -37.9588 11844.0625 42031.2813)">
		<stop  offset="0" style="stop-color:#5A5AA7"/>
		<stop  offset="1" style="stop-color:#7287C3"/>
	</linearGradient>
	<rect x="461.387" y="260.61" clip-path="url(#SVGID_84_)" fill="url(#SVGID_85_)" width="75.186" height="59.476"/>
</g>
<g>
	<defs>
		<polygon id="SVGID_86_" points="488.882,280.247 487.761,282.491 515.813,282.491 516.936,280.247 		"/>
	</defs>
	<clipPath id="SVGID_87_">
		<use xlink:href="#SVGID_86_"  overflow="visible"/>
	</clipPath>
	
		<linearGradient id="SVGID_88_" gradientUnits="userSpaceOnUse" x1="-300.3545" y1="1097.79" x2="-298.3735" y2="1097.79" gradientTransform="matrix(14.7303 0 0 -14.7303 4912.0625 16452.1328)">
		<stop  offset="0" style="stop-color:#96C8EC"/>
		<stop  offset="1" style="stop-color:#BADCF4"/>
	</linearGradient>
	<rect x="487.761" y="280.247" clip-path="url(#SVGID_87_)" fill="url(#SVGID_88_)" width="29.175" height="2.244"/>
</g>
<g>
	<defs>
		<polygon id="SVGID_89_" points="484.394,288.104 483.269,290.35 511.326,290.35 512.448,288.104 		"/>
	</defs>
	<clipPath id="SVGID_90_">
		<use xlink:href="#SVGID_89_"  overflow="visible"/>
	</clipPath>
	
		<linearGradient id="SVGID_91_" gradientUnits="userSpaceOnUse" x1="-300.5054" y1="1097.5254" x2="-298.5244" y2="1097.5254" gradientTransform="matrix(14.7303 0 0 -14.7303 4909.7969 16456.1016)">
		<stop  offset="0" style="stop-color:#96C8EC"/>
		<stop  offset="1" style="stop-color:#BADCF4"/>
	</linearGradient>
	<rect x="483.269" y="288.104" clip-path="url(#SVGID_90_)" fill="url(#SVGID_91_)" width="29.18" height="2.245"/>
</g>
<g>
	<defs>
		<polygon id="SVGID_92_" points="479.902,295.958 478.781,298.203 506.837,298.203 507.959,295.958 		"/>
	</defs>
	<clipPath id="SVGID_93_">
		<use xlink:href="#SVGID_92_"  overflow="visible"/>
	</clipPath>
	
		<linearGradient id="SVGID_94_" gradientUnits="userSpaceOnUse" x1="-300.6558" y1="1097.2607" x2="-298.6748" y2="1097.2607" gradientTransform="matrix(14.7303 0 0 -14.7303 4907.5234 16460.0547)">
		<stop  offset="0" style="stop-color:#96C8EC"/>
		<stop  offset="1" style="stop-color:#BADCF4"/>
	</linearGradient>
	<rect x="478.781" y="295.958" clip-path="url(#SVGID_93_)" fill="url(#SVGID_94_)" width="29.178" height="2.244"/>
</g>
<g opacity="0.15">
	<g>
		<defs>
			<rect id="SVGID_95_" x="290.266" y="270.17" width="17.179" height="22.917"/>
		</defs>
		<clipPath id="SVGID_96_">
			<use xlink:href="#SVGID_95_"  overflow="visible"/>
		</clipPath>
		<path clip-path="url(#SVGID_96_)" fill="#010101" d="M307.445,283.872l-1.166,9.212c-10.223-6.876-15.779-22.229-16.014-22.914
			C295.291,277.981,301.992,281.897,307.445,283.872"/>
	</g>
</g>
<g opacity="0.15">
	<g>
		<defs>
			<rect id="SVGID_97_" x="184.43" y="378.441" width="38.492" height="9.763"/>
		</defs>
		<clipPath id="SVGID_98_">
			<use xlink:href="#SVGID_97_"  overflow="visible"/>
		</clipPath>
		<polygon clip-path="url(#SVGID_98_)" fill="#010101" points="222.922,382.367 222.808,382.827 184.43,388.203 187.313,379.26 
			187.571,378.44 		"/>
	</g>
</g>
</svg>
